<?xml version="1.0" encoding="utf-8"?>
<!-- Generator: Adobe Illustrator 16.0.0, SVG Export Plug-In . SVG Version: 6.00 Build 0)  -->
<!DOCTYPE svg PUBLIC "-//W3C//DTD SVG 1.1//EN" "http://www.w3.org/Graphics/SVG/1.1/DTD/svg11.dtd">
<svg version="1.1" xmlns="http://www.w3.org/2000/svg" xmlns:xlink="http://www.w3.org/1999/xlink" x="0px" y="0px"
	 width="229.333px" height="75.333px" viewBox="0 0 229.333 75.333" enable-background="new 0 0 229.333 75.333"
	 xml:space="preserve">
<g id="Layer_1">
	<rect x="6" y="-18.666" fill="none" width="192" height="57.333"/>
	<g>
		<path fill="#074A91" d="M69.259,60.667H56.111V41.753c0-1.453-0.153-2.461-0.457-3.023c-0.305-0.562-0.856-0.844-1.652-0.844
			c-1.477,0-2.215,1.301-2.215,3.902v18.879H38.638V41.753c0-1.453-0.158-2.461-0.475-3.023s-0.874-0.844-1.67-0.844
			c-1.454,0-2.18,1.301-2.18,3.902v18.879H21.166V39.082c0-3.938,1.324-7.283,3.973-10.037c2.648-2.754,5.859-4.131,9.633-4.131
			c3.89,0,7.383,1.641,10.477,4.922c3.445-3.281,6.891-4.922,10.336-4.922c4.382,0,7.898,1.594,10.547,4.781
			c2.086,2.484,3.129,6.105,3.129,10.863V60.667z"/>
		<path fill="#074A91" d="M148.431,60.667h-13.148V40.875c0-2.016-0.832-3.023-2.496-3.023c-1.641,0-2.461,1.008-2.461,3.023v19.793
			h-13.148V41.121c0-4.57,1.512-8.42,4.535-11.549s6.727-4.693,11.109-4.693c5.015,0,9.035,1.816,12.059,5.449
			c2.367,2.836,3.551,6.785,3.551,11.848V60.667z"/>
		<path fill="#074A91" d="M187.349,60.667h-13.148V40.875c0-2.016-0.832-3.023-2.496-3.023c-1.641,0-2.461,1.008-2.461,3.023v19.793
			h-13.148V41.121c0-4.57,1.512-8.42,4.535-11.549s6.727-4.693,11.109-4.693c5.015,0,9.035,1.816,12.059,5.449
			c2.367,2.836,3.551,6.785,3.551,11.848V60.667z"/>
		<path fill="#074A91" d="M208.162,25.617v35.051h-13.148V25.617H208.162z M201.623,9.972c1.781,0,3.322,0.627,4.623,1.881
			c1.301,1.254,1.951,2.737,1.951,4.447c0,1.828-0.615,3.328-1.846,4.5c-1.23,1.172-2.807,1.758-4.729,1.758
			c-1.922,0-3.498-0.585-4.729-1.758c-1.23-1.172-1.846-2.672-1.846-4.5c0-1.71,0.65-3.193,1.951-4.447
			C198.3,10.6,199.841,9.972,201.623,9.972z"/>
	</g>
	
		<linearGradient id="SVGID_1_" gradientUnits="userSpaceOnUse" x1="198.356" y1="-136.7617" x2="198.356" y2="-99.6587" gradientTransform="matrix(1 0 0 -1 -106 -74.665)">
		<stop  offset="0" style="stop-color:#074A91"/>
		<stop  offset="0.4345" style="stop-color:#094B93"/>
		<stop  offset="0.6487" style="stop-color:#10519B"/>
		<stop  offset="0.8148" style="stop-color:#1C59A8"/>
		<stop  offset="0.9551" style="stop-color:#2D66BA"/>
		<stop  offset="0.9935" style="stop-color:#336AC1"/>
	</linearGradient>
	<path fill="url(#SVGID_1_)" d="M92.357,24.994c-10.246,0-18.552,8.306-18.552,18.551c0,10.247,8.306,18.552,18.552,18.552
		c10.246,0,18.552-8.306,18.552-18.552C110.908,33.299,102.603,24.994,92.357,24.994z M92.357,30.412
		c7.253,0,13.133,5.88,13.133,13.133c0,0.795-0.071,1.573-0.206,2.33c-0.039-0.093,0.116-0.184,0.068-0.271
		c-0.479,0.917-1.638,1.543-2.744,1.543c-1.084,0-2.028-0.601-2.516-1.489c-0.006,0.012-0.013,0.023-0.019,0.036
		c-0.009-0.018-0.018-0.035-0.027-0.051c-0.479,0.917-1.439,1.543-2.545,1.543c-1.084,0-2.028-0.601-2.516-1.489
		c-0.001,0.002-0.003,0.005-0.004,0.007c-0.008-0.013-0.015-0.027-0.023-0.042c-0.479,0.917-1.438,1.543-2.544,1.543
		c-1.085,0-2.028-0.601-2.517-1.489c-0.009,0.018-0.019,0.036-0.027,0.055c-0.024-0.049-0.049-0.099-0.076-0.147
		c-0.479,0.917-1.438,1.544-2.545,1.544c-1.084,0-2.028-0.603-2.516-1.489c-0.003,0.004-0.006,0.01-0.009,0.015
		c-0.012-0.023-0.024-0.047-0.037-0.071c-0.479,0.917-1.439,1.544-2.544,1.544c-1.085,0-2.25-0.603-2.738-1.49
		c-0.063,0.122,0.103,0.249,0.057,0.379c-0.157-0.812-0.239-1.651-0.239-2.51C79.224,36.292,85.104,30.412,92.357,30.412z"/>
</g>
<g id="Layer_2">
</g>
</svg>
