<?xml version="1.0" encoding="utf-8"?>
<!-- Generator: Adobe Illustrator 16.0.0, SVG Export Plug-In . SVG Version: 6.00 Build 0)  -->
<!DOCTYPE svg PUBLIC "-//W3C//DTD SVG 1.1//EN" "http://www.w3.org/Graphics/SVG/1.1/DTD/svg11.dtd">
<svg version="1.1" id="Layer_1" xmlns="http://www.w3.org/2000/svg" xmlns:xlink="http://www.w3.org/1999/xlink" x="0px" y="0px"
	 width="300px" height="300px" viewBox="0 0 300 300" enable-background="new 0 0 300 300" xml:space="preserve">
<g>
	<g opacity="0.75">
		<path d="M217,66c0-6.627-5.373-12-12-12h-96c-6.627,0-12,5.373-12,12v192c0,6.627,5.373,12,12,12h96c6.627,0,12-5.373,12-12V66z"
			/>
		<rect x="102" y="74" width="111" height="159"/>
		<circle cx="157.333" cy="253" r="12.5"/>
	</g>
	<g>
		<g>
			<path fill="#666666" d="M217,62c0-6.627-5.373-12-12-12h-96c-6.627,0-12,5.373-12,12v192c0,6.627,5.373,12,12,12h96
				c6.627,0,12-5.373,12-12V62z"/>
			<rect x="102" y="70" fill="#FFFFFF" width="111" height="159"/>
			<circle fill="#999999" cx="157.333" cy="249" r="12.5"/>
		</g>
	</g>
</g>
</svg>
