<?xml version="1.0" encoding="utf-8"?>
<!-- Generator: Adobe Illustrator 16.0.0, SVG Export Plug-In . SVG Version: 6.00 Build 0)  -->
<!DOCTYPE svg PUBLIC "-//W3C//DTD SVG 1.1//EN" "http://www.w3.org/Graphics/SVG/1.1/DTD/svg11.dtd">
<svg version="1.1" id="Layer_1" xmlns="http://www.w3.org/2000/svg" xmlns:xlink="http://www.w3.org/1999/xlink" x="0px" y="0px"
	 width="300px" height="300px" viewBox="0 0 300 300" enable-background="new 0 0 300 300" xml:space="preserve">
<g>
	<g opacity="0.75">
		<path d="M189.25,59.45l-8.34,29.13l-26.26,6.11L135.12,76.9l7.62-29.36C129.83,54.22,117,67.69,117,83.22
			c0,12.92,6.09,24.41,15.56,31.76l-24.59,113.07l0.08,0.03c-0.01,0.06-0.03,0.11-0.04,0.18c-2.05,9.38,3.65,18.59,12.71,20.561
			c9.06,1.97,18.07-4.04,20.12-13.42c0.01-0.07,0.02-0.12,0.03-0.19l0.07,0.021l24.51-112.701c18.21-3.81,31.88-19.96,31.88-39.31
			C197.33,74.77,193.71,65.93,189.25,59.45z M124.62,238.97c-2.89-0.09-5.17-2.51-5.08-5.399c0.09-2.9,2.51-5.17,5.4-5.08
			c2.9,0.09,5.17,2.51,5.08,5.399C129.93,236.79,127.52,239.06,124.62,238.97z"/>
	</g>
	<g>
		<path fill="#666666" d="M187.25,57.45l-8.34,29.13l-26.26,6.11L133.12,74.9l7.62-29.36C127.83,52.22,115,65.69,115,81.22
			c0,12.92,6.09,24.41,15.56,31.76l-24.59,113.07l0.08,0.03c-0.01,0.06-0.03,0.11-0.04,0.18c-2.05,9.38,3.65,18.59,12.71,20.561
			c9.06,1.97,18.07-4.04,20.12-13.42c0.01-0.07,0.02-0.12,0.03-0.19l0.07,0.021l24.51-112.701c18.21-3.81,31.88-19.96,31.88-39.31
			C195.33,72.77,191.71,63.93,187.25,57.45z M122.62,236.97c-2.89-0.09-5.17-2.51-5.08-5.399c0.09-2.9,2.51-5.17,5.4-5.08
			c2.9,0.09,5.17,2.51,5.08,5.399C127.93,234.79,125.52,237.06,122.62,236.97z"/>
	</g>
</g>
</svg>
